<svg xmlns="http://www.w3.org/2000/svg" viewBox="99.102 82.494 830.796 830.796" width="100%" height="100%">
  <!-- Outer circle (border of the ring) -->
  <circle cx="514.500" cy="497.892" r="415.398" fill="#343338" />
  <!-- Inner circle (background inside the ring) -->
  <circle cx="514.500" cy="494.486" r="385.541" fill="#EEEAD0" />
  <!-- Smooth Fleur-de-lis path -->
  <path d="M514.00 170.30 L513.00 170.55 L512.00 171.20 L511.00 172.05 L510.00 173.00 L509.00 174.00 L508.00 175.00 L507.02 176.00 L506.08 177.00 L505.18 178.00 L504.38 179.00 L503.62 180.00 L502.83 181.00 L501.93 182.00 L500.98 183.00 L500.00 184.00 L499.00 185.00 L498.02 186.00 L497.08 187.00 L496.18 188.00 L495.38 189.00 L494.62 190.00 L493.83 191.00 L492.95 192.00 L492.05 193.00 L491.18 194.00 L490.38 195.00 L489.62 196.00 L488.85 197.00 L488.00 198.00 L487.15 199.00 L486.38 200.00 L485.65 201.00 L484.90 202.00 L484.10 203.00 L483.38 204.00 L482.70 205.00 L482.00 206.00 L481.30 207.00 L480.62 208.00 L479.90 209.00 L479.10 210.00 L478.38 211.00 L477.70 212.00 L477.00 213.00 L476.33 214.00 L475.68 215.00 L475.02 216.00 L474.38 217.00 L473.77 218.00 L473.23 219.00 L472.62 220.00 L471.98 221.00 L471.33 222.00 L470.68 223.00 L470.02 224.00 L469.38 225.00 L468.80 226.00 L468.27 227.00 L467.73 228.00 L467.20 229.00 L466.62 230.00 L466.00 231.00 L465.38 232.00 L464.80 233.00 L464.27 234.00 L463.75 235.00 L463.25 236.00 L462.75 237.00 L462.25 238.00 L461.75 239.00 L461.25 240.00 L460.75 241.00 L460.25 242.00 L459.75 243.00 L459.25 244.00 L458.75 245.00 L458.25 246.00 L457.75 247.00 L457.25 248.00 L456.75 249.00 L456.27 250.00 L455.80 251.00 L455.38 252.00 L455.00 253.00 L454.62 254.00 L454.20 255.00 L453.73 256.00 L453.27 257.00 L452.80 258.00 L452.38 259.00 L452.02 260.00 L451.68 261.00 L451.33 262.00 L451.00 263.00 L450.68 264.00 L450.33 265.00 L450.00 266.00 L449.68 267.00 L449.33 268.00 L449.00 269.00 L448.68 270.00 L448.33 271.00 L448.00 272.00 L447.70 273.00 L447.38 274.00 L447.10 275.00 L446.90 276.00 L446.65 277.00 L446.35 278.00 L446.10 279.00 L445.90 280.00 L445.65 281.00 L445.38 282.00 L445.15 283.00 L445.00 284.00 L444.85 285.00 L444.62 286.00 L444.38 287.00 L444.15 288.00 L444.00 289.00 L443.85 290.00 L443.62 291.00 L443.38 292.00 L443.18 293.00 L443.08 294.00 L443.00 295.00 L442.93 296.00 L442.83 297.00 L442.62 298.00 L442.38 299.00 L442.18 300.00 L442.08 301.00 L442.02 302.00 L442.00 303.00 L442.00 304.00 L442.00 305.00 L442.00 306.00 L441.98 307.00 L441.93 308.00 L441.83 309.00 L441.62 310.00 L441.38 311.00 L441.18 312.00 L441.08 313.00 L441.02 314.00 L441.00 315.00 L441.00 316.00 L441.00 317.00 L441.00 318.00 L441.00 319.00 L441.00 320.00 L441.00 321.00 L441.02 322.00 L441.08 323.00 L441.18 324.00 L441.38 325.00 L441.62 326.00 L441.83 327.00 L441.93 328.00 L441.98 329.00 L442.00 330.00 L442.00 331.00 L442.00 332.00 L442.02 333.00 L442.08 334.00 L442.18 335.00 L442.38 336.00 L442.62 337.00 L442.83 338.00 L442.93 339.00 L443.00 340.00 L443.08 341.00 L443.18 342.00 L443.38 343.00 L443.62 344.00 L443.83 345.00 L443.95 346.00 L444.05 347.00 L444.18 348.00 L444.38 349.00 L444.62 350.00 L444.85 351.00 L445.00 352.00 L445.15 353.00 L445.38 354.00 L445.65 355.00 L445.90 356.00 L446.10 357.00 L446.35 358.00 L446.65 359.00 L446.90 360.00 L447.10 361.00 L447.38 362.00 L447.70 363.00 L448.00 364.00 L448.30 365.00 L448.62 366.00 L448.90 367.00 L449.10 368.00 L449.38 369.00 L449.70 370.00 L450.00 371.00 L450.33 372.00 L450.68 373.00 L451.00 374.00 L451.33 375.00 L451.68 376.00 L452.00 377.00 L452.33 378.00 L452.68 379.00 L453.00 380.00 L453.33 381.00 L453.68 382.00 L454.02 383.00 L454.38 384.00 L454.77 385.00 L455.23 386.00 L455.62 387.00 L456.00 388.00 L456.38 389.00 L456.77 390.00 L457.23 391.00 L457.62 392.00 L458.00 393.00 L458.38 394.00 L458.80 395.00 L459.27 396.00 L459.73 397.00 L460.20 398.00 L460.62 399.00 L461.00 400.00 L461.38 401.00 L461.80 402.00 L462.27 403.00 L462.73 404.00 L463.20 405.00 L463.62 406.00 L464.00 407.00 L464.38 408.00 L464.77 409.00 L465.23 410.00 L465.62 411.00 L466.00 412.00 L466.38 413.00 L466.77 414.00 L467.23 415.00 L467.62 416.00 L468.00 417.00 L468.38 418.00 L468.77 419.00 L469.23 420.00 L469.62 421.00 L470.00 422.00 L470.38 423.00 L470.77 424.00 L471.23 425.00 L471.62 426.00 L471.98 427.00 L472.33 428.00 L472.68 429.00 L473.00 430.00 L473.33 431.00 L473.68 432.00 L474.00 433.00 L474.33 434.00 L474.68 435.00 L475.00 436.00 L475.33 437.00 L475.68 438.00 L476.00 439.00 L476.33 440.00 L476.68 441.00 L477.00 442.00 L477.33 443.00 L477.68 444.00 L478.00 445.00 L478.33 446.00 L478.68 447.00 L479.00 448.00 L479.33 449.00 L479.68 450.00 L480.00 451.00 L480.33 452.00 L480.68 453.00 L481.00 454.00 L481.30 455.00 L481.62 456.00 L481.90 457.00 L482.10 458.00 L482.38 459.00 L482.70 460.00 L483.00 461.00 L483.30 462.00 L483.62 463.00 L483.90 464.00 L484.10 465.00 L484.38 466.00 L484.70 467.00 L485.00 468.00 L485.30 469.00 L485.60 470.00 L485.85 471.00 L486.00 472.00 L486.15 473.00 L486.38 474.00 L486.65 475.00 L486.90 476.00 L487.10 477.00 L487.35 478.00 L487.65 479.00 L487.90 480.00 L488.10 481.00 L488.35 482.00 L488.65 483.00 L488.90 484.00 L489.10 485.00 L489.35 486.00 L489.62 487.00 L489.85 488.00 L490.00 489.00 L490.15 490.00 L490.38 491.00 L490.62 492.00 L490.85 493.00 L491.00 494.00 L491.15 495.00 L491.38 496.00 L491.62 497.00 L491.85 498.00 L492.00 499.00 L492.15 500.00 L492.38 501.00 L492.62 502.00 L492.83 503.00 L492.95 504.00 L493.05 505.00 L493.18 506.00 L493.38 507.00 L493.62 508.00 L493.83 509.00 L493.93 510.00 L494.00 511.00 L494.08 512.00 L494.18 513.00 L494.38 514.00 L494.62 515.00 L494.83 516.00 L494.93 517.00 L494.98 518.00 L495.02 519.00 L495.08 520.00 L495.18 521.00 L495.38 522.00 L495.62 523.00 L495.83 524.00 L495.93 525.00 L495.98 526.00 L496.00 527.00 L496.02 528.00 L496.08 529.00 L496.18 530.00 L496.38 531.00 L496.62 532.00 L496.83 533.00 L496.93 534.00 L496.98 535.00 L497.00 536.00 L497.00 537.00 L497.00 538.00 L497.00 539.00 L497.00 540.00 L497.02 541.00 L497.08 542.00 L497.18 543.00 L497.38 544.00 L497.62 545.00 L497.83 546.00 L497.93 547.00 L497.98 548.00 L498.00 549.00 L498.00 550.00 L498.00 551.00 L497.98 552.00 L497.90 553.00 L497.73 553.98 L497.35 554.90 L496.73 555.73 L495.90 556.35 L494.98 556.73 L494.00 556.90 L493.00 556.98 L492.00 557.00 L491.00 557.00 L490.00 557.00 L489.00 557.00 L488.00 557.00 L487.00 557.00 L486.00 557.00 L485.00 557.00 L484.00 557.00 L483.00 557.00 L482.00 557.00 L481.00 557.00 L480.00 557.00 L479.00 557.00 L478.00 557.00 L477.00 556.98 L476.00 556.90 L475.02 556.73 L474.10 556.35 L473.27 555.73 L472.65 554.90 L472.27 553.98 L472.10 553.00 L472.02 552.00 L472.00 551.00 L471.98 550.00 L471.93 549.00 L471.83 548.00 L471.62 547.00 L471.38 546.00 L471.18 545.00 L471.08 544.00 L471.02 543.00 L471.00 542.00 L471.00 541.00 L471.00 540.00 L471.00 539.00 L470.98 538.00 L470.93 537.00 L470.83 536.00 L470.62 535.00 L470.38 534.00 L470.18 533.00 L470.08 532.00 L470.00 531.00 L469.93 530.00 L469.83 529.00 L469.62 528.00 L469.38 527.00 L469.18 526.00 L469.08 525.00 L469.00 524.00 L468.93 523.00 L468.83 522.00 L468.62 521.00 L468.38 520.00 L468.15 519.00 L468.00 518.00 L467.85 517.00 L467.62 516.00 L467.38 515.00 L467.15 514.00 L467.00 513.00 L466.85 512.00 L466.62 511.00 L466.35 510.00 L466.10 509.00 L465.90 508.00 L465.65 507.00 L465.38 506.00 L465.15 505.00 L465.00 504.00 L464.85 503.00 L464.60 502.00 L464.30 501.00 L464.00 500.00 L463.68 499.00 L463.33 498.00 L463.00 497.00 L462.70 496.00 L462.38 495.00 L462.10 494.00 L461.90 493.00 L461.62 492.00 L461.30 491.00 L461.00 490.00 L460.68 489.00 L460.33 488.00 L460.00 487.00 L459.68 486.00 L459.33 485.00 L459.00 484.00 L458.68 483.00 L458.33 482.00 L457.98 481.00 L457.62 480.00 L457.23 479.00 L456.77 478.00 L456.38 477.00 L456.00 476.00 L455.62 475.00 L455.20 474.00 L454.73 473.00 L454.27 472.00 L453.80 471.00 L453.38 470.00 L453.00 469.00 L452.62 468.00 L452.20 467.00 L451.73 466.00 L451.25 465.00 L450.75 464.00 L450.25 463.00 L449.75 462.00 L449.25 461.00 L448.75 460.00 L448.25 459.00 L447.75 458.00 L447.25 457.00 L446.73 456.00 L446.20 455.00 L445.62 454.00 L445.00 453.00 L444.38 452.00 L443.77 451.00 L443.23 450.00 L442.62 449.00 L442.00 448.00 L441.38 447.00 L440.77 446.00 L440.23 445.00 L439.62 444.00 L438.98 443.00 L438.33 442.00 L437.68 441.00 L437.00 440.00 L436.30 439.00 L435.62 438.00 L434.90 437.00 L434.10 436.00 L433.35 435.00 L432.62 434.00 L431.85 433.00 L431.00 432.00 L430.15 431.00 L429.38 430.00 L428.62 429.00 L427.85 428.00 L427.00 427.00 L426.15 426.00 L425.38 425.00 L424.62 424.00 L423.83 423.00 L422.93 422.00 L421.98 421.00 L421.00 420.00 L420.00 419.00 L419.00 418.00 L418.00 417.00 L417.00 416.02 L416.00 415.08 L415.00 414.18 L414.00 413.38 L413.00 412.62 L412.00 411.83 L411.00 410.95 L410.00 410.05 L409.00 409.18 L408.00 408.38 L407.00 407.65 L406.00 406.90 L405.00 406.10 L404.00 405.35 L403.00 404.65 L402.00 403.90 L401.00 403.10 L400.00 402.38 L399.00 401.70 L398.00 401.00 L397.00 400.33 L396.00 399.68 L395.00 399.02 L394.00 398.38 L393.00 397.77 L392.00 397.23 L391.00 396.62 L390.00 396.00 L389.00 395.38 L388.00 394.80 L387.00 394.27 L386.00 393.75 L385.00 393.25 L384.00 392.75 L383.00 392.25 L382.00 391.75 L381.00 391.25 L380.00 390.75 L379.00 390.25 L378.00 389.75 L377.00 389.25 L376.00 388.75 L375.00 388.25 L374.00 387.75 L373.00 387.27 L372.00 386.80 L371.00 386.38 L370.00 386.02 L369.00 385.68 L368.00 385.33 L367.00 384.98 L366.00 384.62 L365.00 384.23 L364.00 383.80 L363.00 383.43 L362.00 383.12 L361.00 382.90 L360.00 382.62 L359.00 382.30 L358.00 382.00 L357.00 381.70 L356.00 381.38 L355.00 381.10 L354.00 380.90 L353.00 380.65 L352.00 380.35 L351.00 380.10 L350.00 379.90 L349.00 379.65 L348.00 379.38 L347.00 379.15 L346.00 379.00 L345.00 378.85 L344.00 378.62 L343.00 378.38 L342.00 378.15 L341.00 378.00 L340.00 377.85 L339.00 377.62 L338.00 377.38 L337.00 377.18 L336.00 377.08 L335.00 377.02 L334.00 377.00 L333.00 376.98 L332.00 376.93 L331.00 376.83 L330.00 376.62 L329.00 376.38 L328.00 376.18 L327.00 376.08 L326.00 376.02 L325.00 376.00 L324.00 376.00 L323.00 376.00 L322.00 376.00 L321.00 376.00 L320.00 376.00 L319.00 376.00 L318.00 376.00 L317.00 376.00 L316.00 376.00 L315.00 376.00 L314.00 376.00 L313.00 376.00 L312.00 376.00 L311.00 376.00 L310.00 376.00 L309.00 376.00 L308.00 376.02 L307.00 376.08 L306.00 376.18 L305.00 376.38 L304.00 376.62 L303.00 376.83 L302.00 376.93 L301.00 376.98 L300.00 377.02 L299.00 377.08 L298.00 377.18 L297.00 377.38 L296.00 377.62 L295.00 377.83 L294.00 377.95 L293.00 378.05 L292.00 378.18 L291.00 378.38 L290.00 378.65 L289.00 378.90 L288.00 379.10 L287.00 379.35 L286.00 379.65 L285.00 379.90 L284.00 380.10 L283.00 380.38 L282.00 380.70 L281.00 381.00 L280.00 381.33 L279.00 381.68 L278.00 382.00 L277.00 382.33 L276.00 382.68 L275.00 383.02 L274.00 383.38 L273.00 383.77 L272.00 384.23 L271.00 384.62 L270.00 385.00 L269.00 385.38 L268.00 385.80 L267.00 386.27 L266.00 386.75 L265.00 387.25 L264.00 387.75 L263.00 388.25 L262.00 388.75 L261.00 389.25 L260.00 389.75 L259.00 390.27 L258.00 390.80 L257.00 391.38 L256.00 392.00 L255.00 392.62 L254.00 393.23 L253.00 393.80 L252.00 394.43 L251.00 395.12 L250.00 395.90 L249.00 396.65 L248.00 397.35 L247.00 398.10 L246.00 398.90 L245.00 399.65 L244.00 400.38 L243.00 401.18 L242.00 402.08 L241.00 403.02 L240.00 404.00 L239.00 405.00 L238.00 406.00 L237.00 407.00 L236.00 408.00 L235.00 409.00 L234.03 410.00 L233.07 411.00 L232.18 412.00 L231.38 413.00 L230.65 414.00 L229.90 415.00 L229.10 416.00 L228.38 417.00 L227.70 418.00 L227.03 419.00 L226.38 420.00 L225.78 421.00 L225.23 422.00 L224.62 423.00 L224.00 424.00 L223.38 425.00 L222.80 426.00 L222.28 427.00 L221.75 428.00 L221.28 429.00 L220.80 430.00 L220.38 431.00 L220.00 432.00 L219.62 433.00 L219.23 434.00 L218.78 435.00 L218.38 436.00 L218.03 437.00 L217.68 438.00 L217.32 439.00 L217.00 440.00 L216.68 441.00 L216.32 442.00 L216.00 443.00 L215.70 444.00 L215.38 445.00 L215.10 446.00 L214.90 447.00 L214.65 448.00 L214.38 449.00 L214.18 450.00 L214.05 451.00 L213.95 452.00 L213.82 453.00 L213.62 454.00 L213.38 455.00 L213.18 456.00 L213.07 457.00 L213.03 458.00 L212.98 459.00 L212.93 460.00 L212.82 461.00 L212.62 462.00 L212.38 463.00 L212.18 464.00 L212.07 465.00 L212.03 466.00 L212.00 467.00 L212.00 468.00 L212.00 469.00 L212.00 470.00 L212.00 471.00 L212.00 472.00 L212.00 473.00 L212.03 474.00 L212.07 475.00 L212.18 476.00 L212.38 477.00 L212.62 478.00 L212.82 479.00 L212.93 480.00 L212.98 481.00 L213.03 482.00 L213.07 483.00 L213.18 484.00 L213.38 485.00 L213.62 486.00 L213.85 487.00 L214.00 488.00 L214.15 489.00 L214.38 490.00 L214.65 491.00 L214.90 492.00 L215.10 493.00 L215.38 494.00 L215.70 495.00 L216.00 496.00 L216.32 497.00 L216.68 498.00 L217.00 499.00 L217.32 500.00 L217.68 501.00 L218.03 502.00 L218.38 503.00 L218.80 504.00 L219.28 505.00 L219.75 506.00 L220.25 507.00 L220.75 508.00 L221.25 509.00 L221.75 510.00 L222.25 511.00 L222.75 512.00 L223.25 513.00 L223.75 514.00 L224.28 515.00 L224.80 516.00 L225.38 517.00 L226.03 518.00 L226.70 519.00 L227.38 520.00 L228.10 521.00 L228.90 522.00 L229.65 523.00 L230.38 524.00 L231.18 525.00 L232.05 526.00 L232.95 527.00 L233.82 528.00 L234.62 529.00 L235.38 530.00 L236.18 531.00 L237.07 531.97 L238.03 532.92 L239.00 533.83 L240.00 534.62 L241.00 535.38 L242.00 536.17 L243.00 537.05 L244.00 537.95 L245.00 538.83 L246.00 539.62 L247.00 540.35 L248.00 541.10 L249.00 541.90 L250.00 542.62 L251.00 543.30 L252.00 543.97 L253.00 544.62 L254.00 545.22 L255.00 545.78 L256.00 546.38 L257.00 547.00 L258.00 547.62 L259.00 548.20 L260.00 548.73 L261.00 549.25 L262.00 549.75 L263.00 550.25 L264.00 550.75 L265.00 551.25 L266.00 551.73 L267.00 552.20 L268.00 552.62 L269.00 553.00 L270.00 553.38 L271.00 553.78 L272.00 554.23 L273.00 554.62 L274.00 554.98 L275.00 555.33 L276.00 555.67 L277.00 556.00 L278.00 556.33 L279.00 556.67 L280.00 557.00 L281.00 557.30 L282.00 557.62 L283.00 557.90 L284.00 558.10 L285.00 558.35 L286.00 558.65 L287.00 558.90 L288.00 559.10 L289.00 559.35 L290.00 559.62 L291.00 559.85 L292.00 560.00 L293.00 560.15 L294.00 560.38 L295.00 560.62 L296.00 560.83 L297.00 560.92 L298.00 560.98 L299.00 561.03 L300.00 561.08 L301.00 561.17 L302.00 561.38 L303.00 561.62 L304.00 561.83 L305.00 561.92 L306.00 561.98 L307.00 562.00 L308.00 562.00 L309.00 562.00 L310.00 562.00 L311.00 562.00 L312.00 562.00 L313.00 562.00 L314.00 562.00 L315.00 562.00 L316.00 562.00 L317.00 562.00 L318.00 562.00 L319.00 562.00 L320.00 561.98 L321.00 561.92 L322.00 561.83 L323.00 561.62 L324.00 561.38 L325.00 561.17 L326.00 561.08 L327.00 561.03 L328.00 560.98 L329.00 560.92 L330.00 560.83 L331.00 560.62 L332.00 560.38 L333.00 560.17 L334.00 560.05 L335.00 559.95 L336.00 559.83 L337.00 559.62 L338.00 559.35 L339.00 559.10 L340.00 558.90 L341.00 558.65 L342.00 558.35 L343.00 558.10 L344.00 557.90 L345.00 557.62 L346.00 557.30 L347.00 557.00 L348.00 556.67 L349.00 556.33 L350.00 556.00 L351.00 555.67 L352.00 555.33 L353.00 554.98 L354.00 554.62 L355.00 554.23 L356.00 553.78 L357.00 553.38 L357.98 553.00 L358.88 552.62 L359.62 552.23 L360.08 551.78 L360.08 551.35 L359.62 550.95 L358.88 550.50 L357.98 549.95 L357.00 549.35 L356.00 548.80 L355.00 548.28 L354.00 547.73 L353.00 547.20 L352.00 546.62 L351.00 545.97 L350.00 545.33 L349.00 544.67 L348.00 544.00 L347.00 543.30 L346.00 542.62 L345.00 541.90 L344.00 541.10 L343.00 540.35 L342.00 539.62 L341.00 538.83 L340.00 537.92 L339.00 536.97 L338.02 536.00 L337.08 535.00 L336.18 534.00 L335.40 533.00 L334.70 532.00 L334.00 531.00 L333.33 530.00 L332.68 529.00 L332.02 528.00 L331.38 527.00 L330.80 526.00 L330.30 525.00 L329.80 524.00 L329.38 523.00 L329.02 522.00 L328.68 521.00 L328.33 520.00 L328.00 519.00 L327.70 518.00 L327.38 517.00 L327.10 516.00 L326.90 515.00 L326.65 514.00 L326.38 513.00 L326.18 512.00 L326.08 511.00 L326.02 510.00 L326.00 509.00 L326.00 508.00 L326.00 507.00 L326.00 506.00 L326.00 505.00 L326.00 504.00 L326.02 503.00 L326.08 502.00 L326.18 501.00 L326.38 500.00 L326.65 499.00 L326.90 498.00 L327.10 497.00 L327.38 496.00 L327.70 495.00 L328.02 494.00 L328.38 493.00 L328.80 492.00 L329.27 491.00 L329.75 490.00 L330.27 489.00 L330.83 488.00 L331.45 487.00 L332.20 486.00 L333.08 485.00 L334.02 484.00 L335.00 483.00 L336.00 482.00 L337.00 481.00 L338.00 480.02 L339.00 479.08 L340.00 478.20 L341.00 477.45 L342.00 476.83 L343.00 476.27 L344.00 475.75 L345.00 475.25 L346.00 474.75 L347.00 474.27 L348.00 473.80 L349.00 473.38 L350.00 473.02 L351.00 472.70 L352.00 472.38 L353.00 472.10 L354.00 471.90 L355.00 471.65 L356.00 471.38 L357.00 471.18 L358.00 471.08 L359.00 471.02 L360.00 471.00 L361.00 471.00 L362.00 471.00 L363.00 471.00 L364.00 471.00 L365.00 471.00 L366.00 471.00 L367.00 471.00 L368.00 471.00 L369.00 471.00 L370.00 471.02 L371.00 471.08 L372.00 471.18 L373.00 471.38 L374.00 471.65 L375.00 471.90 L376.00 472.10 L377.00 472.38 L378.00 472.70 L379.00 473.00 L380.00 473.33 L381.00 473.68 L382.00 474.02 L383.00 474.38 L384.00 474.80 L385.00 475.27 L386.00 475.75 L387.00 476.25 L388.00 476.75 L389.00 477.25 L390.00 477.75 L391.00 478.27 L392.00 478.80 L393.00 479.38 L394.00 480.02 L395.00 480.68 L396.00 481.33 L397.00 482.00 L398.00 482.68 L399.00 483.33 L400.00 484.00 L401.00 484.70 L402.00 485.40 L403.00 486.18 L404.00 487.08 L405.00 488.02 L406.00 489.00 L407.00 490.00 L408.00 491.00 L409.00 492.00 L410.00 493.00 L410.98 494.00 L411.93 495.00 L412.83 496.00 L413.62 497.00 L414.38 498.00 L415.15 499.00 L416.00 500.00 L416.85 501.00 L417.60 502.00 L418.30 503.00 L419.00 504.00 L419.68 505.00 L420.33 506.00 L420.98 507.00 L421.62 508.00 L422.23 509.00 L422.77 510.00 L423.38 511.00 L424.00 512.00 L424.62 513.00 L425.20 514.00 L425.73 515.00 L426.25 516.00 L426.75 517.00 L427.25 518.00 L427.73 519.00 L428.20 520.00 L428.62 521.00 L429.00 522.00 L429.38 523.00 L429.77 524.00 L430.23 525.00 L430.62 526.00 L431.00 527.00 L431.38 528.00 L431.77 529.00 L432.23 530.00 L432.62 531.00 L432.98 532.00 L433.33 533.00 L433.68 534.00 L434.00 535.00 L434.33 536.00 L434.68 537.00 L435.00 538.00 L435.33 539.00 L435.68 540.00 L436.00 541.00 L436.30 542.00 L436.62 543.00 L436.90 544.00 L437.10 545.00 L437.35 546.00 L437.62 547.00 L437.85 548.00 L438.00 549.00 L438.15 550.00 L438.38 551.00 L438.62 552.00 L438.80 553.00 L438.83 553.98 L438.70 554.90 L438.35 555.73 L437.73 556.35 L436.90 556.73 L435.98 556.90 L435.00 557.00 L434.00 557.08 L433.00 557.20 L432.00 557.45 L431.00 557.83 L430.00 558.30 L429.00 558.83 L428.02 559.45 L427.08 560.20 L426.20 561.08 L425.45 562.03 L424.83 563.00 L424.30 564.00 L423.83 565.00 L423.43 566.00 L423.12 567.00 L422.90 568.00 L422.65 569.00 L422.40 570.00 L422.25 571.00 L422.25 572.00 L422.40 573.00 L422.65 574.00 L422.90 575.00 L423.12 576.00 L423.45 577.00 L423.90 578.00 L424.48 579.00 L425.20 579.98 L426.08 580.92 L427.02 581.80 L428.00 582.55 L429.00 583.17 L430.00 583.70 L431.00 584.17 L432.00 584.55 L433.00 584.83 L434.00 585.00 L435.00 585.15 L436.00 585.38 L437.00 585.62 L438.00 585.85 L438.98 586.03 L439.90 586.25 L440.73 586.65 L441.35 587.28 L441.73 588.10 L441.90 589.03 L441.98 590.00 L442.00 591.00 L442.00 592.00 L441.98 593.00 L441.93 594.00 L441.83 595.00 L441.62 596.00 L441.38 597.00 L441.18 598.00 L441.08 599.00 L441.02 600.00 L441.00 601.00 L440.98 602.00 L440.93 603.00 L440.83 604.00 L440.62 605.00 L440.38 606.00 L440.18 607.00 L440.08 608.00 L440.00 609.00 L439.93 610.00 L439.83 611.00 L439.62 612.00 L439.38 613.00 L439.15 614.00 L439.00 615.00 L438.85 616.00 L438.62 617.00 L438.38 618.00 L438.15 619.00 L438.00 620.00 L437.85 621.00 L437.62 622.00 L437.38 623.00 L437.15 624.00 L437.00 625.00 L436.85 626.00 L436.60 627.00 L436.30 628.00 L436.00 629.00 L435.70 630.00 L435.38 631.00 L435.10 632.00 L434.90 633.00 L434.62 634.00 L434.30 635.00 L434.00 636.00 L433.68 637.00 L433.33 638.00 L433.00 639.00 L432.68 640.00 L432.33 641.00 L431.98 642.00 L431.62 643.00 L431.20 644.00 L430.73 645.00 L430.25 646.00 L429.75 647.00 L429.25 648.00 L428.75 649.00 L428.25 650.00 L427.73 651.00 L427.20 652.00 L426.62 653.00 L425.98 654.00 L425.33 655.00 L424.68 656.00 L424.00 657.00 L423.30 658.00 L422.60 659.00 L421.83 660.00 L420.93 661.00 L419.98 662.00 L419.00 663.00 L418.00 663.98 L417.00 664.92 L416.00 665.83 L415.00 666.60 L414.00 667.30 L413.00 667.98 L412.00 668.62 L411.00 669.20 L410.00 669.70 L409.00 670.20 L408.00 670.62 L407.00 670.98 L406.00 671.30 L405.00 671.60 L404.00 671.83 L403.00 671.95 L402.00 672.03 L401.00 672.10 L400.00 672.20 L399.00 672.25 L398.00 672.20 L397.00 672.10 L396.00 672.05 L395.00 672.00 L394.00 671.92 L393.00 671.80 L392.00 671.55 L391.00 671.20 L390.00 670.78 L389.00 670.35 L388.00 669.92 L387.00 669.42 L386.00 668.75 L385.00 667.90 L384.00 666.98 L383.00 666.00 L382.02 665.00 L381.08 664.00 L380.20 663.00 L379.45 662.00 L378.83 661.00 L378.27 660.00 L377.75 659.00 L377.27 658.00 L376.83 657.00 L376.43 656.00 L376.12 655.00 L375.90 654.00 L375.65 653.00 L375.38 652.00 L375.18 651.00 L375.08 650.00 L375.02 649.00 L375.00 648.00 L375.00 647.00 L375.00 646.00 L375.02 645.00 L375.08 644.00 L375.18 643.00 L375.38 642.00 L375.65 641.00 L375.90 640.00 L376.12 639.00 L376.43 638.00 L376.83 637.00 L377.27 636.00 L377.75 635.00 L378.25 634.00 L378.75 633.00 L379.27 632.00 L379.80 631.00 L380.38 630.00 L381.02 629.00 L381.65 628.03 L382.20 627.12 L382.62 626.35 L382.77 625.83 L382.48 625.65 L381.80 625.75 L380.95 625.92 L380.00 626.12 L379.00 626.42 L378.00 626.80 L377.00 627.23 L376.00 627.62 L375.00 628.00 L374.00 628.38 L373.00 628.80 L372.00 629.30 L371.00 629.80 L370.00 630.38 L369.00 631.00 L368.00 631.62 L367.00 632.23 L366.00 632.80 L365.00 633.42 L364.00 634.12 L363.00 634.90 L362.00 635.65 L361.00 636.38 L360.00 637.17 L359.00 638.08 L358.00 639.03 L357.00 640.00 L356.00 641.00 L355.02 642.00 L354.08 643.00 L353.18 644.00 L352.40 645.00 L351.70 646.00 L351.00 647.00 L350.33 648.00 L349.68 649.00 L349.02 650.00 L348.38 651.00 L347.80 652.00 L347.27 653.00 L346.75 654.00 L346.27 655.00 L345.80 656.00 L345.38 657.00 L345.02 658.00 L344.68 659.00 L344.33 660.00 L344.00 661.00 L343.70 662.00 L343.38 663.00 L343.10 664.00 L342.90 665.00 L342.65 666.00 L342.38 667.00 L342.18 668.00 L342.05 669.00 L341.95 670.00 L341.83 671.00 L341.62 672.00 L341.38 673.00 L341.18 674.00 L341.08 675.00 L341.02 676.00 L341.00 677.00 L341.00 678.00 L341.00 679.00 L341.02 680.00 L341.08 681.00 L341.18 682.00 L341.38 683.00 L341.62 684.00 L341.83 685.00 L341.95 686.00 L342.05 687.00 L342.18 688.00 L342.38 689.00 L342.65 690.00 L342.90 691.00 L343.10 692.00 L343.38 693.00 L343.70 694.00 L344.02 695.00 L344.38 696.00 L344.80 697.00 L345.27 698.00 L345.75 699.00 L346.25 700.00 L346.75 701.00 L347.25 702.00 L347.75 703.00 L348.27 704.00 L348.83 705.00 L349.43 706.00 L350.12 707.00 L350.90 708.00 L351.65 709.00 L352.38 710.00 L353.18 711.00 L354.08 712.00 L355.02 713.00 L356.00 713.98 L357.00 714.92 L358.00 715.83 L359.00 716.62 L360.00 717.35 L361.00 718.10 L362.00 718.90 L363.00 719.62 L364.00 720.30 L365.00 720.98 L366.00 721.62 L367.00 722.20 L368.00 722.73 L369.00 723.25 L370.00 723.75 L371.00 724.25 L372.00 724.73 L373.00 725.20 L374.00 725.62 L375.00 726.00 L376.00 726.38 L377.00 726.78 L378.00 727.20 L379.00 727.58 L380.00 727.88 L381.00 728.10 L382.00 728.35 L383.00 728.62 L384.00 728.85 L385.00 729.00 L386.00 729.15 L387.00 729.38 L388.00 729.62 L389.00 729.83 L390.00 729.92 L391.00 729.98 L392.00 730.00 L393.00 730.00 L394.00 730.00 L395.00 730.00 L396.00 730.00 L397.00 730.00 L398.00 730.00 L399.00 730.00 L400.00 730.00 L401.00 729.98 L402.00 729.92 L403.00 729.83 L404.00 729.62 L405.00 729.38 L406.00 729.15 L407.00 729.00 L408.00 728.85 L409.00 728.60 L410.00 728.30 L411.00 728.00 L412.00 727.67 L413.00 727.33 L414.00 726.98 L415.00 726.62 L416.00 726.20 L417.00 725.73 L418.00 725.25 L419.00 724.75 L420.00 724.25 L421.00 723.75 L422.00 723.25 L423.00 722.73 L424.00 722.20 L425.00 721.62 L426.00 720.98 L427.00 720.30 L428.00 719.62 L429.00 718.90 L430.00 718.10 L431.00 717.35 L432.00 716.62 L433.00 715.83 L434.00 714.92 L435.00 713.98 L436.00 713.00 L436.98 712.00 L437.93 711.00 L438.83 710.00 L439.62 709.00 L440.38 708.00 L441.15 707.00 L442.00 706.00 L442.85 705.00 L443.60 704.00 L444.30 703.00 L445.00 702.00 L445.68 701.00 L446.33 700.00 L446.98 699.00 L447.62 698.00 L448.20 697.00 L448.73 696.00 L449.25 695.00 L449.75 694.00 L450.25 693.00 L450.75 692.00 L451.25 691.00 L451.75 690.00 L452.25 689.00 L452.75 688.00 L453.25 687.00 L453.73 686.00 L454.20 685.00 L454.62 684.00 L454.98 683.00 L455.33 682.00 L455.68 681.00 L456.00 680.00 L456.33 679.00 L456.68 678.00 L457.00 677.00 L457.33 676.00 L457.68 675.00 L458.00 674.00 L458.33 673.00 L458.68 672.00 L459.00 671.00 L459.30 670.00 L459.62 669.00 L459.90 668.00 L460.10 667.00 L460.35 666.00 L460.65 665.00 L460.90 664.00 L461.10 663.00 L461.35 662.00 L461.65 661.00 L461.90 660.00 L462.10 659.00 L462.35 658.00 L462.62 657.00 L462.85 656.00 L463.00 655.00 L463.15 654.00 L463.38 653.00 L463.62 652.00 L463.85 651.00 L464.00 650.00 L464.15 649.00 L464.38 648.00 L464.62 647.00 L464.83 646.00 L464.95 645.00 L465.05 644.00 L465.18 643.00 L465.38 642.00 L465.62 641.00 L465.83 640.00 L465.95 639.00 L466.05 638.00 L466.18 637.00 L466.38 636.00 L466.62 635.00 L466.83 634.00 L466.93 633.00 L467.00 632.00 L467.08 631.00 L467.18 630.00 L467.38 629.00 L467.62 628.00 L467.83 627.00 L467.93 626.00 L467.98 625.00 L468.02 624.00 L468.08 623.00 L468.18 622.00 L468.38 621.00 L468.62 620.00 L468.83 619.00 L468.93 618.00 L468.98 617.00 L469.00 616.00 L469.02 615.00 L469.08 614.00 L469.18 613.00 L469.38 612.00 L469.62 611.00 L469.83 610.00 L469.93 609.00 L469.98 608.00 L470.00 607.00 L470.00 606.00 L470.00 605.00 L470.02 604.00 L470.08 603.00 L470.18 602.00 L470.38 601.00 L470.62 600.00 L470.83 599.00 L470.93 598.00 L470.98 597.00 L471.00 596.00 L471.00 595.00 L471.00 594.00 L471.00 593.00 L471.00 592.00 L471.00 591.00 L471.02 590.00 L471.10 589.00 L471.27 588.05 L471.65 587.15 L472.27 586.38 L473.10 585.88 L474.02 585.60 L475.00 585.45 L476.00 585.45 L477.00 585.58 L478.00 585.65 L479.00 585.67 L480.00 585.78 L481.00 585.90 L482.00 585.95 L483.00 585.98 L484.00 586.00 L485.00 586.00 L486.00 586.00 L487.00 586.00 L488.00 586.00 L489.00 586.00 L490.00 586.00 L491.00 586.00 L492.00 586.00 L493.00 586.00 L494.00 586.03 L494.98 586.10 L495.90 586.28 L496.73 586.65 L497.35 587.28 L497.73 588.10 L497.90 589.03 L497.98 590.00 L498.00 591.00 L497.98 592.00 L497.93 593.00 L497.83 594.00 L497.62 595.00 L497.38 596.00 L497.18 597.00 L497.08 598.00 L497.02 599.00 L497.00 600.00 L497.00 601.00 L497.00 602.00 L497.00 603.00 L497.00 604.00 L497.00 605.00 L496.98 606.00 L496.93 607.00 L496.83 608.00 L496.62 609.00 L496.38 610.00 L496.18 611.00 L496.08 612.00 L496.02 613.00 L496.00 614.00 L496.00 615.00 L495.98 616.00 L495.93 617.00 L495.83 618.00 L495.62 619.00 L495.38 620.00 L495.18 621.00 L495.08 622.00 L495.02 623.00 L494.98 624.00 L494.93 625.00 L494.83 626.00 L494.62 627.00 L494.38 628.00 L494.18 629.00 L494.08 630.00 L494.02 631.00 L493.98 632.00 L493.93 633.00 L493.83 634.00 L493.62 635.00 L493.38 636.00 L493.18 637.00 L493.08 638.00 L493.00 639.00 L492.93 640.00 L492.83 641.00 L492.62 642.00 L492.38 643.00 L492.18 644.00 L492.08 645.00 L492.00 646.00 L491.93 647.00 L491.83 648.00 L491.62 649.00 L491.38 650.00 L491.15 651.00 L491.00 652.00 L490.85 653.00 L490.62 654.00 L490.38 655.00 L490.15 656.00 L490.00 657.00 L489.85 658.00 L489.62 659.00 L489.38 660.00 L489.15 661.00 L489.00 662.00 L488.85 663.00 L488.62 664.00 L488.35 665.00 L488.10 666.00 L487.90 667.00 L487.65 668.00 L487.38 669.00 L487.15 670.00 L487.00 671.00 L486.85 672.00 L486.60 673.00 L486.30 674.00 L486.00 675.00 L485.70 676.00 L485.38 677.00 L485.10 678.00 L484.90 679.00 L484.62 680.00 L484.30 681.00 L484.00 682.00 L483.70 683.00 L483.38 684.00 L483.10 685.00 L482.90 686.00 L482.62 687.00 L482.30 688.00 L481.98 689.00 L481.62 690.00 L481.23 691.00 L480.77 692.00 L480.38 693.00 L480.00 694.00 L479.62 695.00 L479.23 696.00 L478.77 697.00 L478.38 698.00 L478.00 699.00 L477.62 700.00 L477.20 701.00 L476.73 702.00 L476.25 703.00 L475.75 704.00 L475.27 705.00 L474.80 706.00 L474.38 707.00 L474.02 708.00 L473.68 709.00 L473.33 710.00 L473.00 711.00 L472.68 712.00 L472.33 713.00 L472.00 714.00 L471.70 715.00 L471.40 716.00 L471.18 717.00 L471.05 718.00 L470.95 719.00 L470.83 720.00 L470.62 721.00 L470.38 722.00 L470.18 723.00 L470.08 724.00 L470.02 725.00 L469.98 726.00 L469.93 727.00 L469.83 728.00 L469.62 729.00 L469.38 730.00 L469.18 731.00 L469.08 732.00 L469.02 733.00 L469.02 734.00 L469.08 735.00 L469.18 736.00 L469.38 737.00 L469.62 738.00 L469.83 739.00 L469.93 740.00 L469.98 741.00 L470.02 742.00 L470.08 743.00 L470.18 744.00 L470.38 745.00 L470.62 746.00 L470.83 747.00 L470.95 748.00 L471.05 749.00 L471.18 750.00 L471.38 751.00 L471.65 752.00 L471.90 753.00 L472.10 754.00 L472.35 755.00 L472.65 756.00 L472.90 757.00 L473.10 758.00 L473.38 759.00 L473.70 760.00 L474.00 761.00 L474.33 762.00 L474.68 763.00 L475.02 764.00 L475.38 765.00 L475.77 766.00 L476.23 767.00 L476.62 768.00 L477.00 769.00 L477.38 770.00 L477.80 771.00 L478.27 772.00 L478.75 773.00 L479.25 774.00 L479.75 775.00 L480.25 776.00 L480.75 777.00 L481.25 778.00 L481.75 779.00 L482.27 780.00 L482.80 781.00 L483.38 782.00 L484.00 783.00 L484.62 784.00 L485.23 785.00 L485.77 786.00 L486.38 787.00 L487.02 788.00 L487.68 789.00 L488.33 790.00 L489.00 791.00 L489.70 792.00 L490.38 793.00 L491.10 794.00 L491.90 795.00 L492.65 796.00 L493.38 797.00 L494.15 798.00 L495.00 799.00 L495.85 800.00 L496.62 801.00 L497.38 802.00 L498.18 803.00 L499.08 804.00 L500.02 805.00 L501.00 806.00 L502.00 807.00 L503.00 808.00 L504.00 809.00 L505.00 810.00 L506.00 811.00 L507.00 812.00 L508.00 813.00 L509.00 814.00 L510.00 814.98 L511.00 815.90 L512.00 816.73 L513.00 817.33 L514.00 817.62 L515.00 817.62 L516.00 817.33 L517.00 816.73 L518.00 815.90 L519.00 814.98 L520.00 814.00 L521.00 813.00 L522.00 812.00 L523.00 811.00 L524.00 810.00 L525.00 809.00 L526.00 808.00 L527.00 807.00 L527.97 806.00 L528.92 805.00 L529.83 804.00 L530.62 803.00 L531.38 802.00 L532.15 801.00 L533.00 800.00 L533.85 799.00 L534.62 798.00 L535.35 797.00 L536.10 796.00 L536.90 795.00 L537.62 794.00 L538.30 793.00 L539.00 792.00 L539.67 791.00 L540.33 790.00 L541.00 789.00 L541.67 788.00 L542.33 787.00 L542.97 786.00 L543.62 785.00 L544.20 784.00 L544.72 783.00 L545.25 782.00 L545.75 781.00 L546.25 780.00 L546.75 779.00 L547.25 778.00 L547.75 777.00 L548.25 776.00 L548.75 775.00 L549.25 774.00 L549.75 773.00 L550.25 772.00 L550.73 771.00 L551.20 770.00 L551.62 769.00 L552.00 768.00 L552.38 767.00 L552.78 766.00 L553.23 765.00 L553.62 764.00 L553.98 763.00 L554.33 762.00 L554.67 761.00 L555.00 760.00 L555.30 759.00 L555.62 758.00 L555.90 757.00 L556.10 756.00 L556.35 755.00 L556.62 754.00 L556.85 753.00 L557.00 752.00 L557.15 751.00 L557.38 750.00 L557.62 749.00 L557.85 748.00 L558.00 747.00 L558.15 746.00 L558.38 745.00 L558.62 744.00 L558.83 743.00 L558.92 742.00 L558.98 741.00 L559.00 740.00 L559.00 739.00 L559.00 738.00 L559.00 737.00 L559.00 736.00 L559.00 735.00 L559.00 734.00 L559.00 733.00 L559.00 732.00 L559.00 731.00 L559.00 730.00 L559.00 729.00 L559.00 728.00 L559.00 727.00 L558.98 726.00 L558.92 725.00 L558.83 724.00 L558.62 723.00 L558.38 722.00 L558.15 721.00 L558.00 720.00 L557.85 719.00 L557.62 718.00 L557.35 717.00 L557.10 716.00 L556.90 715.00 L556.62 714.00 L556.30 713.00 L556.00 712.00 L555.67 711.00 L555.33 710.00 L554.98 709.00 L554.62 708.00 L554.20 707.00 L553.73 706.00 L553.25 705.00 L552.75 704.00 L552.28 703.00 L551.80 702.00 L551.38 701.00 L551.00 700.00 L550.62 699.00 L550.23 698.00 L549.78 697.00 L549.38 696.00 L549.00 695.00 L548.62 694.00 L548.23 693.00 L547.78 692.00 L547.38 691.00 L547.03 690.00 L546.67 689.00 L546.33 688.00 L546.00 687.00 L545.70 686.00 L545.38 685.00 L545.10 684.00 L544.90 683.00 L544.62 682.00 L544.30 681.00 L544.00 680.00 L543.70 679.00 L543.38 678.00 L543.10 677.00 L542.90 676.00 L542.65 675.00 L542.35 674.00 L542.10 673.00 L541.90 672.00 L541.65 671.00 L541.38 670.00 L541.15 669.00 L541.00 668.00 L540.85 667.00 L540.62 666.00 L540.35 665.00 L540.10 664.00 L539.90 663.00 L539.65 662.00 L539.38 661.00 L539.15 660.00 L539.00 659.00 L538.85 658.00 L538.62 657.00 L538.38 656.00 L538.17 655.00 L538.05 654.00 L537.95 653.00 L537.83 652.00 L537.62 651.00 L537.38 650.00 L537.17 649.00 L537.05 648.00 L536.95 647.00 L536.83 646.00 L536.62 645.00 L536.38 644.00 L536.17 643.00 L536.08 642.00 L536.00 641.00 L535.92 640.00 L535.83 639.00 L535.62 638.00 L535.38 637.00 L535.17 636.00 L535.08 635.00 L535.03 634.00 L534.97 633.00 L534.92 632.00 L534.83 631.00 L534.62 630.00 L534.38 629.00 L534.17 628.00 L534.08 627.00 L534.03 626.00 L533.97 625.00 L533.92 624.00 L533.83 623.00 L533.62 622.00 L533.38 621.00 L533.17 620.00 L533.08 619.00 L533.03 618.00 L533.00 617.00 L533.00 616.00 L532.97 615.00 L532.92 614.00 L532.83 613.00 L532.62 612.00 L532.38 611.00 L532.17 610.00 L532.08 609.00 L532.03 608.00 L532.00 607.00 L532.00 606.00 L532.00 605.00 L532.00 604.00 L531.97 603.00 L531.92 602.00 L531.83 601.00 L531.62 600.00 L531.38 599.00 L531.17 598.00 L531.08 597.00 L531.03 596.00 L531.00 595.00 L531.00 594.00 L531.00 593.00 L531.00 592.00 L531.00 591.00 L531.03 590.00 L531.10 589.03 L531.28 588.10 L531.65 587.28 L532.28 586.65 L533.10 586.28 L534.03 586.10 L535.00 586.03 L536.00 586.00 L537.00 586.00 L538.00 586.00 L539.00 586.00 L540.00 586.00 L541.00 586.00 L542.00 586.00 L543.00 586.00 L544.00 586.00 L545.00 586.00 L546.00 586.00 L547.00 586.00 L548.00 586.00 L549.00 586.00 L550.00 586.00 L551.00 586.00 L552.00 586.00 L553.00 586.03 L553.98 586.10 L554.90 586.28 L555.73 586.65 L556.35 587.28 L556.73 588.10 L556.92 589.03 L557.05 590.00 L557.17 591.00 L557.38 592.00 L557.62 593.00 L557.83 594.00 L557.92 595.00 L557.98 596.00 L558.00 597.00 L558.00 598.00 L558.00 599.00 L558.00 600.00 L558.00 601.00 L558.03 602.00 L558.08 603.00 L558.17 604.00 L558.38 605.00 L558.62 606.00 L558.83 607.00 L558.92 608.00 L558.98 609.00 L559.00 610.00 L559.00 611.00 L559.03 612.00 L559.08 613.00 L559.17 614.00 L559.38 615.00 L559.62 616.00 L559.83 617.00 L559.92 618.00 L559.98 619.00 L560.03 620.00 L560.08 621.00 L560.17 622.00 L560.38 623.00 L560.62 624.00 L560.83 625.00 L560.92 626.00 L561.00 627.00 L561.08 628.00 L561.17 629.00 L561.38 630.00 L561.62 631.00 L561.83 632.00 L561.92 633.00 L562.00 634.00 L562.08 635.00 L562.17 636.00 L562.38 637.00 L562.62 638.00 L562.83 639.00 L562.95 640.00 L563.05 641.00 L563.17 642.00 L563.38 643.00 L563.62 644.00 L563.85 645.00 L564.00 646.00 L564.15 647.00 L564.38 648.00 L564.62 649.00 L564.85 650.00 L565.00 651.00 L565.15 652.00 L565.38 653.00 L565.62 654.00 L565.85 655.00 L566.00 656.00 L566.15 657.00 L566.38 658.00 L566.65 659.00 L566.90 660.00 L567.10 661.00 L567.35 662.00 L567.65 663.00 L567.90 664.00 L568.10 665.00 L568.38 666.00 L568.70 667.00 L569.00 668.00 L569.30 669.00 L569.62 670.00 L569.90 671.00 L570.10 672.00 L570.38 673.00 L570.70 674.00 L571.00 675.00 L571.33 676.00 L571.67 677.00 L572.00 678.00 L572.33 679.00 L572.67 680.00 L573.03 681.00 L573.38 682.00 L573.80 683.00 L574.28 684.00 L574.73 685.00 L575.20 686.00 L575.62 687.00 L576.00 688.00 L576.38 689.00 L576.80 690.00 L577.28 691.00 L577.75 692.00 L578.28 693.00 L578.80 694.00 L579.38 695.00 L580.00 696.00 L580.62 697.00 L581.23 698.00 L581.78 699.00 L582.38 700.00 L583.03 701.00 L583.70 702.00 L584.40 703.00 L585.15 704.00 L586.00 705.00 L586.85 706.00 L587.62 707.00 L588.38 708.00 L589.17 709.00 L590.08 710.00 L591.03 711.00 L592.00 712.00 L593.00 713.00 L594.00 713.98 L595.00 714.92 L596.00 715.83 L597.00 716.62 L598.00 717.35 L599.00 718.10 L600.00 718.90 L601.00 719.62 L602.00 720.30 L603.00 720.98 L604.00 721.62 L605.00 722.20 L606.00 722.73 L607.00 723.25 L608.00 723.75 L609.00 724.25 L610.00 724.75 L611.00 725.25 L612.00 725.73 L613.00 726.20 L614.00 726.62 L615.00 726.98 L616.00 727.33 L617.00 727.67 L618.00 728.00 L619.00 728.30 L620.00 728.60 L621.00 728.85 L622.00 729.00 L623.00 729.15 L624.00 729.38 L625.00 729.62 L626.00 729.83 L627.00 729.92 L628.00 729.98 L629.00 730.00 L630.00 730.00 L631.00 730.00 L632.00 730.00 L633.00 730.00 L634.00 730.00 L635.00 730.00 L636.00 730.00 L637.00 730.00 L638.00 729.98 L639.00 729.92 L640.00 729.83 L641.00 729.62 L642.00 729.38 L643.00 729.15 L644.00 729.00 L645.00 728.85 L646.00 728.60 L647.00 728.30 L648.00 728.00 L649.00 727.67 L650.00 727.33 L651.00 727.00 L652.00 726.67 L653.00 726.33 L654.00 725.98 L655.00 725.62 L656.00 725.20 L657.00 724.73 L658.00 724.25 L659.00 723.73 L660.00 723.20 L661.00 722.62 L662.00 721.98 L663.00 721.33 L664.00 720.67 L665.00 720.00 L666.00 719.33 L667.00 718.67 L668.00 718.00 L669.00 717.30 L670.00 716.60 L671.00 715.83 L672.00 714.92 L673.00 713.98 L673.98 713.00 L674.92 712.00 L675.83 711.00 L676.62 710.00 L677.35 709.00 L678.10 708.00 L678.88 707.00 L679.58 706.00 L680.17 705.00 L680.73 704.00 L681.25 703.00 L681.75 702.00 L682.25 701.00 L682.75 700.00 L683.25 699.00 L683.73 698.00 L684.20 697.00 L684.62 696.00 L684.98 695.00 L685.30 694.00 L685.62 693.00 L685.90 692.00 L686.10 691.00 L686.35 690.00 L686.62 689.00 L686.83 688.00 L686.95 687.00 L687.05 686.00 L687.17 685.00 L687.38 684.00 L687.62 683.00 L687.83 682.00 L687.92 681.00 L687.98 680.00 L688.00 679.00 L688.00 678.00 L687.98 677.00 L687.92 676.00 L687.83 675.00 L687.62 674.00 L687.38 673.00 L687.17 672.00 L687.08 671.00 L687.00 670.00 L686.92 669.00 L686.83 668.00 L686.62 667.00 L686.35 666.00 L686.10 665.00 L685.90 664.00 L685.62 663.00 L685.30 662.00 L685.00 661.00 L684.67 660.00 L684.33 659.00 L683.98 658.00 L683.62 657.00 L683.20 656.00 L682.73 655.00 L682.25 654.00 L681.73 653.00 L681.20 652.00 L680.62 651.00 L679.98 650.00 L679.33 649.00 L678.67 648.00 L678.00 647.00 L677.30 646.00 L676.60 645.00 L675.83 644.00 L674.92 643.00 L673.98 642.00 L673.00 641.00 L672.00 640.00 L671.00 639.03 L670.00 638.08 L669.00 637.17 L668.00 636.38 L667.00 635.65 L666.00 634.90 L665.00 634.12 L664.00 633.42 L663.00 632.80 L662.00 632.23 L661.00 631.62 L660.00 631.00 L659.00 630.40 L658.00 629.85 L657.00 629.40 L656.00 629.00 L655.00 628.62 L654.00 628.23 L653.00 627.78 L652.00 627.38 L651.00 627.03 L650.00 626.67 L649.00 626.33 L648.05 626.03 L647.17 625.80 L646.48 625.67 L646.12 625.83 L646.15 626.35 L646.50 627.12 L647.05 628.03 L647.67 629.00 L648.33 630.00 L648.98 631.00 L649.62 632.00 L650.20 633.00 L650.70 634.00 L651.20 635.00 L651.62 636.00 L651.98 637.00 L652.30 638.00 L652.62 639.00 L652.90 640.00 L653.10 641.00 L653.35 642.00 L653.62 643.00 L653.83 644.00 L653.92 645.00 L653.98 646.00 L654.00 647.00 L654.00 648.00 L653.98 649.00 L653.92 650.00 L653.83 651.00 L653.60 652.00 L653.30 653.00 L653.00 654.00 L652.67 655.00 L652.33 656.00 L651.98 657.00 L651.62 658.00 L651.20 659.00 L650.70 660.00 L650.17 661.00 L649.55 662.00 L648.80 663.00 L647.92 664.00 L646.98 665.00 L646.00 665.98 L645.00 666.92 L644.00 667.80 L643.00 668.55 L642.00 669.17 L641.00 669.73 L640.00 670.25 L639.00 670.73 L638.00 671.17 L637.00 671.55 L636.00 671.80 L635.00 671.95 L634.00 672.05 L633.00 672.15 L632.00 672.30 L631.00 672.45 L630.00 672.45 L629.00 672.30 L628.00 672.15 L627.00 672.05 L626.00 671.95 L625.00 671.83 L624.00 671.60 L623.00 671.30 L622.00 670.98 L621.00 670.62 L620.00 670.20 L619.00 669.70 L618.00 669.20 L617.00 668.62 L616.00 667.98 L615.00 667.30 L614.00 666.60 L613.00 665.83 L612.00 664.92 L611.00 663.98 L610.00 663.00 L609.03 662.00 L608.08 661.00 L607.17 660.00 L606.40 659.00 L605.70 658.00 L605.00 657.00 L604.33 656.00 L603.67 655.00 L603.03 654.00 L602.38 653.00 L601.80 652.00 L601.28 651.00 L600.75 650.00 L600.25 649.00 L599.75 648.00 L599.25 647.00 L598.75 646.00 L598.28 645.00 L597.80 644.00 L597.38 643.00 L597.00 642.00 L596.62 641.00 L596.23 640.00 L595.78 639.00 L595.38 638.00 L595.03 637.00 L594.70 636.00 L594.38 635.00 L594.10 634.00 L593.90 633.00 L593.65 632.00 L593.35 631.00 L593.10 630.00 L592.90 629.00 L592.65 628.00 L592.35 627.00 L592.10 626.00 L591.90 625.00 L591.65 624.00 L591.35 623.00 L591.10 622.00 L590.90 621.00 L590.65 620.00 L590.38 619.00 L590.17 618.00 L590.05 617.00 L589.95 616.00 L589.83 615.00 L589.62 614.00 L589.38 613.00 L589.15 612.00 L589.00 611.00 L588.85 610.00 L588.62 609.00 L588.38 608.00 L588.17 607.00 L588.08 606.00 L588.00 605.00 L587.92 604.00 L587.83 603.00 L587.62 602.00 L587.38 601.00 L587.17 600.00 L587.08 599.00 L587.03 598.00 L587.00 597.00 L587.00 596.00 L587.00 595.00 L587.00 594.00 L587.00 593.00 L587.00 592.00 L587.00 591.00 L587.03 590.00 L587.10 589.03 L587.28 588.10 L587.65 587.28 L588.28 586.65 L589.10 586.25 L590.03 586.03 L591.00 585.85 L592.00 585.62 L593.00 585.38 L594.00 585.15 L595.00 585.00 L596.00 584.83 L597.00 584.55 L598.00 584.17 L599.00 583.70 L600.00 583.17 L600.98 582.55 L601.92 581.80 L602.80 580.92 L603.55 579.98 L604.17 579.00 L604.70 578.00 L605.17 577.00 L605.55 576.00 L605.80 575.00 L605.92 574.00 L605.98 573.00 L606.00 572.00 L606.00 571.00 L605.98 570.00 L605.92 569.00 L605.80 568.00 L605.55 567.00 L605.17 566.00 L604.70 565.00 L604.17 564.00 L603.55 563.00 L602.80 562.00 L601.92 561.03 L600.98 560.08 L600.00 559.20 L599.00 558.48 L598.00 557.90 L597.00 557.48 L596.00 557.20 L595.00 557.08 L594.00 557.00 L593.00 556.90 L592.05 556.73 L591.17 556.35 L590.45 555.73 L590.03 554.90 L589.90 553.98 L589.95 553.00 L590.03 552.00 L590.15 551.00 L590.38 550.00 L590.65 549.00 L590.90 548.00 L591.10 547.00 L591.38 546.00 L591.70 545.00 L592.00 544.00 L592.30 543.00 L592.62 542.00 L592.90 541.00 L593.10 540.00 L593.38 539.00 L593.70 538.00 L594.00 537.00 L594.33 536.00 L594.67 535.00 L595.03 534.00 L595.38 533.00 L595.78 532.00 L596.23 531.00 L596.62 530.00 L596.98 529.00 L597.33 528.00 L597.67 527.00 L598.03 526.00 L598.38 525.00 L598.80 524.00 L599.28 523.00 L599.73 522.00 L600.20 521.00 L600.62 520.00 L601.00 519.00 L601.40 518.00 L601.85 517.00 L602.40 516.00 L603.00 515.00 L603.62 514.00 L604.20 513.00 L604.73 512.00 L605.28 511.00 L605.80 510.00 L606.38 509.00 L607.03 508.00 L607.67 507.00 L608.33 506.00 L609.00 505.00 L609.70 504.00 L610.38 503.00 L611.10 502.00 L611.90 501.00 L612.65 500.00 L613.38 499.00 L614.17 498.00 L615.08 497.00 L616.03 496.00 L617.00 495.00 L617.98 494.00 L618.92 493.00 L619.83 492.02 L620.62 491.08 L621.38 490.18 L622.17 489.38 L623.08 488.62 L624.03 487.83 L625.00 486.95 L626.00 486.05 L627.00 485.18 L628.00 484.40 L629.00 483.70 L630.00 483.00 L631.00 482.33 L632.00 481.68 L633.00 481.02 L634.00 480.38 L635.00 479.80 L636.00 479.27 L637.00 478.73 L638.00 478.20 L639.00 477.65 L640.00 477.05 L641.00 476.50 L642.00 476.05 L643.00 475.65 L644.00 475.20 L645.00 474.73 L646.00 474.27 L647.00 473.83 L648.00 473.43 L649.00 473.12 L650.00 472.90 L651.00 472.65 L652.00 472.35 L653.00 472.10 L654.00 471.90 L655.00 471.65 L656.00 471.38 L657.00 471.18 L658.00 471.08 L659.00 471.02 L660.00 471.00 L661.00 471.00 L662.00 471.00 L663.00 471.00 L664.00 471.00 L665.00 471.00 L666.00 471.00 L667.00 471.00 L668.00 471.00 L669.00 471.00 L670.00 471.02 L671.00 471.08 L672.00 471.18 L673.00 471.38 L674.00 471.65 L675.00 471.90 L676.00 472.10 L677.00 472.38 L678.00 472.70 L679.00 473.02 L680.00 473.38 L681.00 473.80 L682.00 474.27 L683.00 474.75 L684.00 475.27 L685.00 475.80 L686.00 476.38 L687.00 477.02 L688.00 477.70 L689.00 478.40 L690.00 479.18 L691.00 480.08 L692.00 481.02 L692.98 482.00 L693.92 483.00 L694.83 484.00 L695.60 485.00 L696.30 486.00 L696.98 487.00 L697.62 488.00 L698.20 489.00 L698.73 490.00 L699.25 491.00 L699.73 492.00 L700.20 493.00 L700.62 494.00 L700.98 495.00 L701.30 496.00 L701.62 497.00 L701.90 498.00 L702.10 499.00 L702.35 500.00 L702.62 501.00 L702.83 502.00 L702.92 503.00 L702.98 504.00 L703.00 505.00 L703.00 506.00 L703.00 507.00 L702.98 508.00 L702.92 509.00 L702.83 510.00 L702.62 511.00 L702.38 512.00 L702.15 513.00 L702.00 514.00 L701.85 515.00 L701.62 516.00 L701.35 517.00 L701.10 518.00 L700.88 519.00 L700.58 520.00 L700.17 521.00 L699.73 522.00 L699.25 523.00 L698.75 524.00 L698.25 525.00 L697.73 526.00 L697.20 527.00 L696.62 528.00 L695.98 529.00 L695.33 530.00 L694.67 531.00 L694.00 532.00 L693.30 533.00 L692.60 534.00 L691.83 534.97 L690.92 535.92 L689.98 536.83 L689.00 537.62 L688.00 538.38 L687.00 539.15 L686.00 540.00 L685.00 540.85 L684.00 541.62 L683.00 542.35 L682.00 543.10 L681.00 543.90 L680.00 544.62 L679.00 545.30 L678.00 545.97 L677.00 546.62 L676.00 547.20 L675.00 547.73 L674.00 548.25 L673.00 548.75 L672.00 549.25 L671.03 549.75 L670.12 550.25 L669.38 550.75 L668.92 551.25 L668.92 551.75 L669.38 552.25 L670.12 552.73 L671.03 553.20 L672.00 553.62 L673.00 553.98 L674.00 554.33 L675.00 554.67 L676.00 555.00 L677.00 555.33 L678.00 555.67 L679.00 556.00 L680.00 556.33 L681.00 556.67 L682.00 557.00 L683.00 557.30 L684.00 557.62 L685.00 557.90 L686.00 558.10 L687.00 558.35 L688.00 558.65 L689.00 558.90 L690.00 559.10 L691.00 559.35 L692.00 559.62 L693.00 559.85 L694.00 560.00 L695.00 560.15 L696.00 560.38 L697.00 560.62 L698.00 560.83 L699.00 560.92 L700.00 560.98 L701.00 561.03 L702.00 561.08 L703.00 561.17 L704.00 561.38 L705.00 561.62 L706.00 561.83 L707.00 561.92 L708.00 561.98 L709.00 562.00 L710.00 562.00 L711.00 562.00 L712.00 562.00 L713.00 562.00 L714.00 562.00 L715.00 562.00 L716.00 562.00 L717.00 562.00 L718.00 562.00 L719.00 562.00 L720.00 562.00 L721.00 562.00 L722.00 562.00 L723.00 561.98 L724.00 561.92 L725.00 561.83 L726.00 561.62 L727.00 561.38 L728.00 561.17 L729.00 561.08 L730.00 561.00 L731.00 560.92 L732.00 560.83 L733.00 560.62 L734.00 560.38 L735.00 560.17 L736.00 560.05 L737.00 559.95 L738.00 559.83 L739.00 559.62 L740.00 559.35 L741.00 559.10 L742.00 558.90 L743.00 558.65 L744.00 558.35 L745.00 558.10 L746.00 557.90 L747.00 557.62 L748.00 557.30 L749.00 557.00 L750.00 556.67 L751.00 556.33 L752.00 555.98 L753.00 555.62 L754.00 555.23 L755.00 554.78 L756.00 554.38 L757.00 554.00 L758.00 553.62 L759.00 553.23 L760.00 552.78 L761.00 552.38 L762.00 552.00 L763.00 551.62 L764.00 551.20 L765.00 550.73 L766.00 550.25 L767.00 549.73 L768.00 549.20 L769.00 548.62 L770.00 548.00 L771.00 547.38 L772.00 546.78 L773.00 546.23 L774.00 545.62 L775.00 544.97 L776.00 544.33 L777.00 543.67 L778.00 543.00 L779.00 542.30 L780.00 541.62 L781.00 540.90 L782.00 540.10 L783.00 539.35 L784.00 538.62 L785.00 537.83 L786.00 536.92 L787.00 535.97 L788.00 535.00 L789.00 534.00 L790.00 533.00 L791.00 532.00 L792.00 531.00 L793.00 530.00 L794.00 529.00 L794.98 528.00 L795.92 527.00 L796.83 526.00 L797.62 525.00 L798.35 524.00 L799.10 523.00 L799.90 522.00 L800.62 521.00 L801.30 520.00 L801.98 519.00 L802.62 518.00 L803.23 517.00 L803.78 516.00 L804.38 515.00 L805.00 514.00 L805.62 513.00 L806.20 512.00 L806.73 511.00 L807.25 510.00 L807.73 509.00 L808.20 508.00 L808.62 507.00 L809.00 506.00 L809.38 505.00 L809.78 504.00 L810.23 503.00 L810.62 502.00 L810.98 501.00 L811.33 500.00 L811.67 499.00 L812.00 498.00 L812.30 497.00 L812.62 496.00 L812.90 495.00 L813.10 494.00 L813.35 493.00 L813.62 492.00 L813.85 491.00 L814.00 490.00 L814.15 489.00 L814.38 488.00 L814.62 487.00 L814.83 486.00 L814.95 485.00 L815.05 484.00 L815.17 483.00 L815.38 482.00 L815.62 481.00 L815.83 480.00 L815.92 479.00 L815.98 478.00 L816.00 477.00 L816.00 476.00 L816.00 475.00 L816.00 474.00 L816.00 473.00 L816.00 472.00 L816.00 471.00 L816.00 470.00 L816.00 469.00 L816.00 468.00 L816.00 467.00 L816.00 466.00 L816.00 465.00 L816.00 464.00 L816.00 463.00 L816.00 462.00 L815.98 461.00 L815.92 460.00 L815.83 459.00 L815.62 458.00 L815.38 457.00 L815.17 456.00 L815.05 455.00 L814.95 454.00 L814.83 453.00 L814.62 452.00 L814.38 451.00 L814.15 450.00 L814.00 449.00 L813.85 448.00 L813.62 447.00 L813.35 446.00 L813.10 445.00 L812.90 444.00 L812.62 443.00 L812.30 442.00 L812.00 441.00 L811.67 440.00 L811.33 439.00 L811.00 438.00 L810.67 437.00 L810.33 436.00 L809.98 435.00 L809.62 434.00 L809.20 433.00 L808.73 432.00 L808.25 431.00 L807.75 430.00 L807.25 429.00 L806.75 428.00 L806.25 427.00 L805.75 426.00 L805.25 425.00 L804.73 424.00 L804.20 423.00 L803.62 422.00 L802.98 421.00 L802.33 420.00 L801.67 419.00 L801.00 418.00 L800.30 417.00 L799.62 416.00 L798.90 415.00 L798.10 414.00 L797.35 413.00 L796.62 412.00 L795.83 411.00 L794.92 410.00 L793.98 409.00 L793.00 408.00 L792.00 407.00 L791.00 406.00 L790.00 405.00 L789.00 404.02 L788.00 403.08 L787.00 402.18 L786.00 401.38 L785.00 400.65 L784.00 399.90 L783.00 399.10 L782.00 398.35 L781.00 397.65 L780.00 396.90 L779.00 396.10 L778.00 395.38 L777.00 394.70 L776.00 394.02 L775.00 393.38 L774.00 392.77 L773.00 392.23 L772.00 391.62 L771.00 391.00 L770.00 390.38 L769.00 389.80 L768.00 389.27 L767.00 388.75 L766.00 388.25 L765.00 387.75 L764.00 387.25 L763.00 386.75 L762.00 386.27 L761.00 385.80 L760.00 385.38 L759.00 385.00 L758.00 384.62 L757.00 384.23 L756.00 383.77 L755.00 383.38 L754.00 383.02 L753.00 382.68 L752.00 382.33 L751.00 382.00 L750.00 381.70 L749.00 381.38 L748.00 381.10 L747.00 380.90 L746.00 380.62 L745.00 380.30 L744.00 380.00 L743.00 379.70 L742.00 379.40 L741.00 379.15 L740.00 379.00 L739.00 378.85 L738.00 378.62 L737.00 378.38 L736.00 378.15 L735.00 378.00 L734.00 377.85 L733.00 377.62 L732.00 377.38 L731.00 377.18 L730.00 377.08 L729.00 377.02 L728.00 376.98 L727.00 376.93 L726.00 376.83 L725.00 376.62 L724.00 376.38 L723.00 376.18 L722.00 376.08 L721.00 376.02 L720.00 376.00 L719.00 376.00 L718.00 376.00 L717.00 376.00 L716.00 376.00 L715.00 376.00 L714.00 376.00 L713.00 376.00 L712.00 376.00 L711.00 376.00 L710.00 376.00 L709.00 376.00 L708.00 376.00 L707.00 376.00 L706.00 376.00 L705.00 376.00 L704.00 376.00 L703.00 376.00 L702.00 376.02 L701.00 376.08 L700.00 376.18 L699.00 376.38 L698.00 376.62 L697.00 376.83 L696.00 376.93 L695.00 376.98 L694.00 377.02 L693.00 377.08 L692.00 377.18 L691.00 377.38 L690.00 377.62 L689.00 377.83 L688.00 377.95 L687.00 378.05 L686.00 378.18 L685.00 378.38 L684.00 378.62 L683.00 378.85 L682.00 379.00 L681.00 379.15 L680.00 379.38 L679.00 379.65 L678.00 379.90 L677.00 380.10 L676.00 380.38 L675.00 380.70 L674.00 381.00 L673.00 381.30 L672.00 381.62 L671.00 381.90 L670.00 382.10 L669.00 382.38 L668.00 382.70 L667.00 383.00 L666.00 383.33 L665.00 383.68 L664.00 384.02 L663.00 384.38 L662.00 384.77 L661.00 385.23 L660.00 385.62 L659.00 386.00 L658.00 386.38 L657.00 386.77 L656.00 387.23 L655.00 387.62 L654.00 388.00 L653.00 388.38 L652.00 388.80 L651.00 389.27 L650.00 389.75 L649.00 390.25 L648.00 390.75 L647.00 391.25 L646.00 391.75 L645.00 392.27 L644.00 392.80 L643.00 393.38 L642.00 394.00 L641.00 394.62 L640.00 395.23 L639.00 395.77 L638.00 396.38 L637.00 397.00 L636.00 397.62 L635.00 398.23 L634.00 398.77 L633.00 399.38 L632.00 400.02 L631.00 400.70 L630.00 401.38 L629.00 402.10 L628.00 402.90 L627.00 403.62 L626.00 404.30 L625.00 405.00 L624.00 405.70 L623.00 406.40 L622.00 407.15 L621.00 408.00 L620.00 408.85 L619.00 409.62 L618.00 410.38 L617.00 411.18 L616.00 412.08 L615.00 413.02 L614.00 414.00 L613.00 415.00 L612.00 416.00 L611.00 417.00 L610.00 418.00 L609.00 419.00 L608.00 420.00 L607.00 421.00 L606.00 422.00 L605.00 423.00 L604.03 424.00 L603.08 425.00 L602.17 426.00 L601.38 427.00 L600.62 428.00 L599.85 429.00 L599.00 430.00 L598.15 431.00 L597.38 432.00 L596.65 433.00 L595.90 434.00 L595.10 435.00 L594.35 436.00 L593.65 437.00 L592.90 438.00 L592.10 439.00 L591.38 440.00 L590.70 441.00 L590.03 442.00 L589.38 443.00 L588.78 444.00 L588.23 445.00 L587.62 446.00 L587.00 447.00 L586.38 448.00 L585.80 449.00 L585.28 450.00 L584.75 451.00 L584.25 452.00 L583.73 453.00 L583.20 454.00 L582.62 455.00 L582.00 456.00 L581.38 457.00 L580.80 458.00 L580.28 459.00 L579.75 460.00 L579.25 461.00 L578.75 462.00 L578.25 463.00 L577.75 464.00 L577.28 465.00 L576.80 466.00 L576.38 467.00 L576.00 468.00 L575.62 469.00 L575.20 470.00 L574.73 471.00 L574.28 472.00 L573.80 473.00 L573.38 474.00 L573.03 475.00 L572.67 476.00 L572.33 477.00 L571.98 478.00 L571.62 479.00 L571.23 480.00 L570.78 481.00 L570.38 482.00 L570.03 483.00 L569.67 484.00 L569.33 485.00 L569.00 486.00 L568.67 487.00 L568.33 488.00 L568.00 489.00 L567.67 490.00 L567.33 491.00 L567.00 492.00 L566.70 493.00 L566.38 494.00 L566.10 495.00 L565.90 496.00 L565.62 497.00 L565.30 498.00 L565.00 499.00 L564.70 500.00 L564.38 501.00 L564.10 502.00 L563.90 503.00 L563.65 504.00 L563.35 505.00 L563.10 506.00 L562.90 507.00 L562.65 508.00 L562.38 509.00 L562.15 510.00 L562.00 511.00 L561.85 512.00 L561.62 513.00 L561.38 514.00 L561.15 515.00 L561.00 516.00 L560.85 517.00 L560.62 518.00 L560.38 519.00 L560.17 520.00 L560.05 521.00 L559.95 522.00 L559.83 523.00 L559.62 524.00 L559.38 525.00 L559.17 526.00 L559.05 527.00 L558.95 528.00 L558.83 529.00 L558.62 530.00 L558.38 531.00 L558.17 532.00 L558.08 533.00 L558.03 534.00 L558.00 535.00 L557.98 536.00 L557.92 537.00 L557.83 538.00 L557.62 539.00 L557.38 540.00 L557.17 541.00 L557.08 542.00 L557.03 543.00 L557.00 544.00 L557.00 545.00 L557.00 546.00 L557.00 547.00 L557.00 548.00 L557.00 549.00 L557.00 550.00 L557.00 551.00 L556.98 552.00 L556.90 553.00 L556.73 553.98 L556.35 554.90 L555.73 555.73 L554.90 556.35 L553.98 556.73 L553.00 556.90 L552.00 556.98 L551.00 557.00 L550.00 557.00 L549.00 557.00 L548.00 557.00 L547.00 557.00 L546.00 557.00 L545.00 557.00 L544.00 557.00 L543.00 557.00 L542.00 557.00 L541.00 557.00 L540.00 557.00 L539.00 557.00 L538.00 557.00 L537.00 557.00 L536.00 557.00 L535.00 556.98 L534.03 556.90 L533.10 556.73 L532.28 556.35 L531.65 555.73 L531.28 554.90 L531.10 553.98 L531.03 553.00 L531.00 552.00 L531.00 551.00 L531.00 550.00 L531.00 549.00 L531.00 548.00 L531.00 547.00 L531.00 546.00 L531.00 545.00 L531.03 544.00 L531.08 543.00 L531.17 542.00 L531.38 541.00 L531.62 540.00 L531.83 539.00 L531.92 538.00 L531.97 537.00 L532.00 536.00 L532.00 535.00 L532.00 534.00 L532.00 533.00 L532.03 532.00 L532.08 531.00 L532.17 530.00 L532.38 529.00 L532.62 528.00 L532.83 527.00 L532.92 526.00 L532.97 525.00 L533.00 524.00 L533.03 523.00 L533.08 522.00 L533.17 521.00 L533.38 520.00 L533.62 519.00 L533.83 518.00 L533.92 517.00 L534.00 516.00 L534.08 515.00 L534.17 514.00 L534.38 513.00 L534.62 512.00 L534.83 511.00 L534.92 510.00 L535.00 509.00 L535.08 508.00 L535.17 507.00 L535.38 506.00 L535.62 505.00 L535.83 504.00 L535.95 503.00 L536.05 502.00 L536.17 501.00 L536.38 500.00 L536.62 499.00 L536.85 498.00 L537.00 497.00 L537.15 496.00 L537.38 495.00 L537.62 494.00 L537.85 493.00 L538.00 492.00 L538.15 491.00 L538.38 490.00 L538.62 489.00 L538.85 488.00 L539.00 487.00 L539.15 486.00 L539.38 485.00 L539.65 484.00 L539.90 483.00 L540.10 482.00 L540.35 481.00 L540.62 480.00 L540.85 479.00 L541.00 478.00 L541.15 477.00 L541.38 476.00 L541.65 475.00 L541.90 474.00 L542.10 473.00 L542.35 472.00 L542.65 471.00 L542.90 470.00 L543.10 469.00 L543.38 468.00 L543.70 467.00 L544.00 466.00 L544.30 465.00 L544.62 464.00 L544.90 463.00 L545.10 462.00 L545.38 461.00 L545.70 460.00 L546.00 459.00 L546.30 458.00 L546.62 457.00 L546.90 456.00 L547.10 455.00 L547.38 454.00 L547.70 453.00 L548.00 452.00 L548.33 451.00 L548.67 450.00 L549.00 449.00 L549.33 448.00 L549.67 447.00 L550.00 446.00 L550.33 445.00 L550.67 444.00 L551.00 443.00 L551.33 442.00 L551.67 441.00 L552.00 440.00 L552.33 439.00 L552.67 438.00 L553.00 437.00 L553.33 436.00 L553.67 435.00 L554.00 434.00 L554.33 433.00 L554.67 432.00 L555.03 431.00 L555.38 430.00 L555.78 429.00 L556.23 428.00 L556.62 427.00 L557.00 426.00 L557.38 425.00 L557.78 424.00 L558.23 423.00 L558.62 422.00 L559.00 421.00 L559.38 420.00 L559.78 419.00 L560.23 418.00 L560.62 417.00 L561.00 416.00 L561.38 415.00 L561.78 414.00 L562.23 413.00 L562.62 412.00 L563.00 411.00 L563.38 410.00 L563.80 409.00 L564.28 408.00 L564.73 407.00 L565.20 406.00 L565.62 405.00 L566.00 404.00 L566.38 403.00 L566.80 402.00 L567.28 401.00 L567.73 400.00 L568.20 399.00 L568.62 398.00 L569.00 397.00 L569.38 396.00 L569.80 395.00 L570.28 394.00 L570.73 393.00 L571.20 392.00 L571.62 391.00 L572.00 390.00 L572.38 389.00 L572.78 388.00 L573.23 387.00 L573.62 386.00 L573.98 385.00 L574.33 384.00 L574.67 383.00 L575.00 382.00 L575.33 381.00 L575.67 380.00 L576.00 379.00 L576.33 378.00 L576.67 377.00 L577.00 376.00 L577.33 375.00 L577.67 374.00 L578.00 373.00 L578.33 372.00 L578.67 371.00 L579.00 370.00 L579.30 369.00 L579.62 368.00 L579.90 367.00 L580.10 366.00 L580.35 365.00 L580.65 364.00 L580.90 363.00 L581.10 362.00 L581.35 361.00 L581.65 360.00 L581.90 359.00 L582.10 358.00 L582.35 357.00 L582.62 356.00 L582.85 355.00 L583.00 354.00 L583.15 353.00 L583.38 352.00 L583.62 351.00 L583.85 350.00 L584.00 349.00 L584.15 348.00 L584.38 347.00 L584.62 346.00 L584.83 345.00 L584.95 344.00 L585.05 343.00 L585.17 342.00 L585.38 341.00 L585.62 340.00 L585.83 339.00 L585.92 338.00 L585.98 337.00 L586.03 336.00 L586.08 335.00 L586.17 334.00 L586.38 333.00 L586.62 332.00 L586.83 331.00 L586.92 330.00 L586.98 329.00 L587.00 328.00 L587.00 327.00 L587.00 326.00 L587.00 325.00 L587.00 324.00 L587.00 323.00 L587.00 322.00 L587.00 321.00 L587.00 320.00 L587.00 319.00 L587.00 318.00 L587.00 317.00 L587.00 316.00 L587.00 315.00 L587.00 314.00 L587.00 313.00 L587.00 312.00 L587.00 311.00 L587.00 310.00 L587.00 309.00 L587.00 308.00 L587.00 307.00 L586.98 306.00 L586.92 305.00 L586.83 304.00 L586.62 303.00 L586.38 302.00 L586.17 301.00 L586.08 300.00 L586.03 299.00 L585.98 298.00 L585.92 297.00 L585.83 296.00 L585.62 295.00 L585.38 294.00 L585.17 293.00 L585.05 292.00 L584.95 291.00 L584.83 290.00 L584.62 289.00 L584.38 288.00 L584.15 287.00 L584.00 286.00 L583.85 285.00 L583.62 284.00 L583.35 283.00 L583.10 282.00 L582.90 281.00 L582.65 280.00 L582.35 279.00 L582.10 278.00 L581.90 277.00 L581.65 276.00 L581.35 275.00 L581.10 274.00 L580.90 273.00 L580.62 272.00 L580.30 271.00 L580.00 270.00 L579.67 269.00 L579.33 268.00 L579.00 267.00 L578.67 266.00 L578.33 265.00 L578.00 264.00 L577.67 263.00 L577.33 262.00 L576.98 261.00 L576.62 260.00 L576.23 259.00 L575.78 258.00 L575.38 257.00 L575.00 256.00 L574.62 255.00 L574.20 254.00 L573.73 253.00 L573.28 252.00 L572.80 251.00 L572.38 250.00 L572.00 249.00 L571.62 248.00 L571.20 247.00 L570.73 246.00 L570.25 245.00 L569.75 244.00 L569.25 243.00 L568.75 242.00 L568.25 241.00 L567.75 240.00 L567.25 239.00 L566.75 238.00 L566.25 237.00 L565.73 236.00 L565.20 235.00 L564.62 234.00 L564.00 233.00 L563.38 232.00 L562.80 231.00 L562.28 230.00 L561.73 229.00 L561.20 228.00 L560.62 227.00 L560.00 226.00 L559.38 225.00 L558.78 224.00 L558.23 223.00 L557.62 222.00 L556.98 221.00 L556.33 220.00 L555.67 219.00 L555.00 218.00 L554.33 217.00 L553.67 216.00 L553.00 215.00 L552.33 214.00 L551.67 213.00 L551.00 212.00 L550.30 211.00 L549.62 210.00 L548.90 209.00 L548.10 208.00 L547.35 207.00 L546.65 206.00 L545.90 205.00 L545.10 204.00 L544.38 203.00 L543.70 202.00 L543.00 201.00 L542.30 200.00 L541.60 199.00 L540.85 198.00 L540.00 197.00 L539.15 196.00 L538.38 195.00 L537.62 194.00 L536.83 193.00 L535.95 192.00 L535.05 191.00 L534.17 190.00 L533.38 189.00 L532.62 188.00 L531.83 187.00 L530.92 186.00 L529.97 185.00 L529.00 184.00 L528.00 183.00 L527.00 182.00 L526.03 181.00 L525.08 180.00 L524.17 179.00 L523.38 178.00 L522.62 177.00 L521.83 176.03 L520.92 175.07 L519.97 174.18 L519.00 173.38 L518.00 172.62 L517.00 171.88 L516.00 171.12 L515.00 170.53 Z" fill="#343338" />
</svg>
